<svg id="Layer_1" data-name="Layer 1" xmlns="http://www.w3.org/2000/svg" viewBox="0 0 800 515.22"><defs><style>.cls-1{fill:#0c0824}.cls-2{fill:#31c5f0}</style></defs><title>photoshop-logo</title><path class="cls-1" d="M198.2 61.31h403.6v392.6H198.2z"/><path class="cls-2" d="M198.2 61.31h403.6V453.9H198.2zm-18.34 410.94h440.28V43H179.86zm296.83-253.17c-14.5 0-19.44 7.34-19.44 13.39 0 6.6 3.3 11.19 22.75 21.28 28.8 13.94 37.8 27.37 37.8 47 0 29.36-22.38 45.12-52.65 45.12-16 0-29.72-3.31-37.61-7.88-1.29-.55-1.48-1.48-1.48-3v-26.93c0-1.83.92-2.39 2.22-1.48a68.09 68.09 0 0 0 36.87 10.82c14.5 0 20.55-6.05 20.55-14.31 0-6.6-4.22-12.48-22.75-22-26-12.48-36.87-25.15-36.87-46.23 0-23.67 18.53-43.3 50.64-43.3 15.78 0 26.78 2.39 32.84 5.14a4.06 4.06 0 0 1 1.83 3.7v25.15c0 1.48-.92 2.39-2.75 1.83-8.07-5.13-20-8.25-31.92-8.25zm-157.78 21.84c4.22.37 7.52.37 14.86.37 21.45 0 41.64-7.52 41.64-36.69 0-23.3-14.5-35-38.89-35-7.34 0-14.31.37-17.61.55v70.81zm-32.65-97.42c0-1.29 2.57-2.22 4-2.22 11.75-.55 29.17-.92 47.34-.92 50.81 0 70.63 27.88 70.63 63.48 0 46.6-33.76 66.57-75.21 66.57-7 0-9.36-.37-14.31-.37v70.44c0 1.48-.55 2.22-2.22 2.22h-28.03c-1.48 0-2.22-.55-2.22-2.22v-197z"/></svg>